# This file uses centimeters as units for non-parametric coordinates.

mtllib box3.mtl
g default
v -10.131467 -0.500000 10.131467
v 10.131467 -0.500000 10.131467
v -10.131467 0.500000 10.131467
v 10.131467 0.500000 10.131467
v -10.131467 0.500000 -10.131467
v 10.131467 0.500000 -10.131467
v -10.131467 -0.500000 -10.131467
v 10.131467 -0.500000 -10.131467
v 0.000000 0.500000 10.131467
v 0.000000 0.500000 -10.131467
v 0.000000 -0.500000 -10.131467
v 0.000000 -0.500000 10.131467
v 5.065733 0.500000 10.131467
v 5.065733 0.500000 -10.131467
v 5.065733 -0.500000 -10.131467
v 5.065733 -0.500000 10.131467
v 7.598600 0.500000 10.131467
v 7.598600 0.500000 -10.131467
v 7.598600 -0.500000 -10.131467
v 7.598600 -0.500000 10.131467
v -5.065733 0.500000 10.131467
v -5.065733 0.500000 -10.131467
v -5.065733 -0.500000 -10.131467
v -5.065733 -0.500000 10.131467
v -7.598600 0.500000 10.131467
v -7.598600 0.500000 -10.131467
v -7.598600 -0.500000 -10.131467
v -7.598600 -0.500000 10.131467
v 0.000000 0.500000 0.000000
v -5.065733 0.500000 0.000000
v -7.598600 0.500000 0.000000
v -10.131467 0.500000 0.000000
v -10.131467 -0.500000 0.000000
v -7.598600 -0.500000 0.000000
v -5.065733 -0.500000 0.000000
v 0.000000 -0.500000 0.000000
v 5.065733 -0.500000 0.000000
v 7.598600 -0.500000 0.000000
v 10.131467 -0.500000 0.000000
v 10.131467 0.500000 0.000000
v 7.598600 0.500000 0.000000
v 5.065733 0.500000 0.000000
v 0.000000 0.500000 5.065733
v -5.065733 0.500000 5.065733
v -7.598600 0.500000 5.065733
v -10.131467 0.500000 5.065733
v -10.131467 -0.500000 5.065733
v -7.598600 -0.500000 5.065733
v -5.065733 -0.500000 5.065733
v 0.000000 -0.500000 5.065733
v 5.065733 -0.500000 5.065733
v 7.598600 -0.500000 5.065733
v 10.131467 -0.500000 5.065733
v 10.131467 0.500000 5.065733
v 7.598600 0.500000 5.065733
v 5.065733 0.500000 5.065733
v 0.000000 0.500000 -5.065733
v -5.065733 0.500000 -5.065733
v -7.598600 0.500000 -5.065733
v -10.131467 0.500000 -5.065733
v -10.131467 -0.500000 -5.065733
v -7.598600 -0.500000 -5.065733
v -5.065733 -0.500000 -5.065733
v 0.000000 -0.500000 -5.065733
v 5.065733 -0.500000 -5.065733
v 7.598600 -0.500000 -5.065733
v 10.131467 -0.500000 -5.065733
v 10.131467 0.500000 -5.065733
v 7.598600 0.500000 -5.065733
v 5.065733 0.500000 -5.065733
v 0.000000 0.500000 7.598600
v -5.065733 0.500000 7.598600
v -7.598600 0.500000 7.598600
v -10.131467 0.500000 7.598600
v -10.131467 -0.500000 7.598600
v -7.598600 -0.500000 7.598600
v -5.065733 -0.500000 7.598600
v 0.000000 -0.500000 7.598600
v 5.065733 -0.500000 7.598600
v 7.598600 -0.500000 7.598600
v 10.131467 -0.500000 7.598600
v 10.131467 0.500000 7.598600
v 7.598600 0.500000 7.598600
v 5.065733 0.500000 7.598600
v 0.000000 0.500000 -7.598600
v -5.065733 0.500000 -7.598600
v -7.598600 0.500000 -7.598600
v -10.131467 0.500000 -7.598600
v -10.131467 -0.500000 -7.598600
v -7.598600 -0.500000 -7.598600
v -5.065733 -0.500000 -7.598600
v 0.000000 -0.500000 -7.598600
v 5.065733 -0.500000 -7.598600
v 7.598600 -0.500000 -7.598600
v 10.131467 -0.500000 -7.598600
v 10.131467 0.500000 -7.598600
v 7.598600 0.500000 -7.598600
v 5.065733 0.500000 -7.598600
v -10.131467 1.596642 10.131467
v -7.598600 1.596642 10.131467
v -7.598600 1.596642 7.598600
v -10.131467 1.596642 7.598600
v 0.000000 1.596642 10.131467
v 5.065733 1.596642 10.131467
v 5.065733 1.596642 7.598600
v 0.000000 1.596642 7.598600
v 7.598600 1.596642 10.131467
v 7.598600 1.596642 7.598600
v 10.131467 1.596642 10.131467
v 10.131467 1.596642 7.598600
v -5.065733 1.596642 10.131467
v -5.065733 1.596642 7.598600
v -7.598600 1.596642 0.000000
v -10.131467 1.596642 0.000000
v -7.598600 1.596642 -5.065733
v -10.131467 1.596642 -5.065733
v 10.131467 1.596642 0.000000
v 7.598600 1.596642 0.000000
v 10.131467 1.596642 -5.065733
v 7.598600 1.596642 -5.065733
v -7.598600 1.596642 5.065733
v -10.131467 1.596642 5.065733
v 10.131467 1.596642 5.065733
v 7.598600 1.596642 5.065733
v -7.598600 1.596642 -7.598600
v -10.131467 1.596642 -7.598600
v 10.131467 1.596642 -7.598600
v 7.598600 1.596642 -7.598600
v 0.000000 1.596642 -7.598600
v -5.065733 1.596642 -7.598600
v 0.000000 1.596642 -10.131467
v -5.065733 1.596642 -10.131467
v -7.598600 1.596642 -10.131467
v -10.131467 1.596642 -10.131467
v 10.131467 1.596642 -10.131467
v 7.598600 1.596642 -10.131467
v 5.065733 1.596642 -7.598600
v 5.065733 1.596642 -10.131467
vt 0.375000 0.000000
vt 0.625000 0.000000
vt 0.375000 0.250000
vt 0.625000 0.250000
vt 0.375000 0.500000
vt 0.625000 0.500000
vt 0.375000 0.750000
vt 0.625000 0.750000
vt 0.375000 1.000000
vt 0.625000 1.000000
vt 0.875000 0.000000
vt 0.875000 0.250000
vt 0.125000 0.000000
vt 0.125000 0.250000
vt 0.500000 0.250000
vt 0.500000 0.500000
vt 0.500000 0.750000
vt 0.500000 0.000000
vt 0.500000 1.000000
vt 0.562500 0.250000
vt 0.562500 0.500000
vt 0.562500 0.750000
vt 0.562500 0.000000
vt 0.562500 1.000000
vt 0.593750 0.250000
vt 0.593750 0.500000
vt 0.593750 0.750000
vt 0.593750 0.000000
vt 0.593750 1.000000
vt 0.437500 0.250000
vt 0.437500 0.500000
vt 0.437500 0.750000
vt 0.437500 0.000000
vt 0.437500 1.000000
vt 0.406250 0.250000
vt 0.406250 0.500000
vt 0.406250 0.750000
vt 0.406250 0.000000
vt 0.406250 1.000000
vt 0.500000 0.375000
vt 0.437500 0.375000
vt 0.406250 0.375000
vt 0.250000 0.250000
vt 0.375000 0.375000
vt 0.250000 0.000000
vt 0.375000 0.875000
vt 0.406250 0.875000
vt 0.437500 0.875000
vt 0.500000 0.875000
vt 0.562500 0.875000
vt 0.593750 0.875000
vt 0.625000 0.875000
vt 0.750000 0.000000
vt 0.625000 0.375000
vt 0.750000 0.250000
vt 0.593750 0.375000
vt 0.562500 0.375000
vt 0.500000 0.312500
vt 0.437500 0.312500
vt 0.406250 0.312500
vt 0.312500 0.250000
vt 0.375000 0.312500
vt 0.312500 0.000000
vt 0.375000 0.937500
vt 0.406250 0.937500
vt 0.437500 0.937500
vt 0.500000 0.937500
vt 0.562500 0.937500
vt 0.593750 0.937500
vt 0.625000 0.937500
vt 0.687500 0.000000
vt 0.625000 0.312500
vt 0.687500 0.250000
vt 0.593750 0.312500
vt 0.562500 0.312500
vt 0.500000 0.437500
vt 0.437500 0.437500
vt 0.406250 0.437500
vt 0.187500 0.250000
vt 0.375000 0.437500
vt 0.187500 0.000000
vt 0.375000 0.812500
vt 0.406250 0.812500
vt 0.437500 0.812500
vt 0.500000 0.812500
vt 0.562500 0.812500
vt 0.593750 0.812500
vt 0.625000 0.812500
vt 0.812500 0.000000
vt 0.625000 0.437500
vt 0.812500 0.250000
vt 0.593750 0.437500
vt 0.562500 0.437500
vt 0.500000 0.281250
vt 0.437500 0.281250
vt 0.406250 0.281250
vt 0.343750 0.250000
vt 0.375000 0.281250
vt 0.343750 0.000000
vt 0.375000 0.968750
vt 0.406250 0.968750
vt 0.437500 0.968750
vt 0.500000 0.968750
vt 0.562500 0.968750
vt 0.593750 0.968750
vt 0.625000 0.968750
vt 0.656250 0.000000
vt 0.625000 0.281250
vt 0.656250 0.250000
vt 0.593750 0.281250
vt 0.562500 0.281250
vt 0.500000 0.468750
vt 0.437500 0.468750
vt 0.406250 0.468750
vt 0.156250 0.250000
vt 0.375000 0.468750
vt 0.156250 0.000000
vt 0.375000 0.781250
vt 0.406250 0.781250
vt 0.437500 0.781250
vt 0.500000 0.781250
vt 0.562500 0.781250
vt 0.593750 0.781250
vt 0.625000 0.781250
vt 0.843750 0.000000
vt 0.625000 0.468750
vt 0.843750 0.250000
vt 0.593750 0.468750
vt 0.562500 0.468750
vt 0.375000 0.250000
vt 0.406250 0.250000
vt 0.375000 0.281250
vt 0.500000 0.250000
vt 0.562500 0.250000
vt 0.562500 0.281250
vt 0.500000 0.281250
vt 0.593750 0.250000
vt 0.593750 0.281250
vt 0.625000 0.250000
vt 0.625000 0.281250
vt 0.437500 0.250000
vt 0.437500 0.281250
vt 0.406250 0.281250
vt 0.406250 0.375000
vt 0.406250 0.437500
vt 0.375000 0.437500
vt 0.375000 0.375000
vt 0.625000 0.375000
vt 0.625000 0.437500
vt 0.593750 0.437500
vt 0.593750 0.375000
vt 0.406250 0.312500
vt 0.375000 0.312500
vt 0.625000 0.312500
vt 0.593750 0.312500
vt 0.406250 0.468750
vt 0.375000 0.468750
vt 0.625000 0.468750
vt 0.593750 0.468750
vt 0.437500 0.468750
vt 0.500000 0.468750
vt 0.500000 0.500000
vt 0.437500 0.500000
vt 0.406250 0.500000
vt 0.375000 0.500000
vt 0.625000 0.500000
vt 0.593750 0.500000
vt 0.562500 0.468750
vt 0.562500 0.500000
vn 0.000000 0.000000 1.000000
vn 0.000000 0.000000 1.000000
vn 0.000000 0.000000 1.000000
vn 0.000000 0.000000 1.000000
vn 0.000000 1.000000 0.000000
vn 0.000000 1.000000 0.000000
vn 0.000000 1.000000 0.000000
vn 0.000000 1.000000 0.000000
vn 0.000000 0.000000 -1.000000
vn 0.000000 0.000000 -1.000000
vn 0.000000 0.000000 -1.000000
vn 0.000000 0.000000 -1.000000
vn 0.000000 -1.000000 0.000000
vn 0.000000 -1.000000 0.000000
vn 0.000000 -1.000000 0.000000
vn 0.000000 -1.000000 0.000000
vn 1.000000 0.000000 0.000000
vn 1.000000 0.000000 0.000000
vn 1.000000 0.000000 0.000000
vn 1.000000 0.000000 0.000000
vn -1.000000 0.000000 0.000000
vn -1.000000 0.000000 0.000000
vn -1.000000 0.000000 0.000000
vn -1.000000 0.000000 0.000000
vn 0.000000 1.000000 0.000000
vn 0.000000 1.000000 0.000000
vn 0.000000 1.000000 0.000000
vn 0.000000 1.000000 0.000000
vn 0.000000 0.000000 -1.000000
vn 0.000000 0.000000 -1.000000
vn 0.000000 0.000000 -1.000000
vn 0.000000 0.000000 -1.000000
vn 0.000000 -1.000000 0.000000
vn 0.000000 -1.000000 0.000000
vn 0.000000 -1.000000 0.000000
vn 0.000000 -1.000000 0.000000
vn 0.000000 0.000000 1.000000
vn 0.000000 0.000000 1.000000
vn 0.000000 0.000000 1.000000
vn 0.000000 0.000000 1.000000
vn 0.000000 1.000000 0.000000
vn 0.000000 1.000000 0.000000
vn 0.000000 0.000000 -1.000000
vn 0.000000 0.000000 -1.000000
vn 0.000000 -1.000000 0.000000
vn 0.000000 -1.000000 0.000000
vn 0.000000 0.000000 1.000000
vn 0.000000 0.000000 1.000000
vn 0.000000 1.000000 0.000000
vn 0.000000 1.000000 0.000000
vn 0.000000 0.000000 -1.000000
vn 0.000000 0.000000 -1.000000
vn 0.000000 -1.000000 0.000000
vn 0.000000 -1.000000 0.000000
vn 0.000000 0.000000 1.000000
vn 0.000000 0.000000 1.000000
vn 0.000000 1.000000 0.000000
vn 0.000000 1.000000 0.000000
vn 0.000000 0.000000 -1.000000
vn 0.000000 0.000000 -1.000000
vn 0.000000 -1.000000 0.000000
vn 0.000000 -1.000000 0.000000
vn 0.000000 0.000000 1.000000
vn 0.000000 0.000000 1.000000
vn 0.000000 1.000000 0.000000
vn 0.000000 1.000000 0.000000
vn 0.000000 1.000000 0.000000
vn 0.000000 1.000000 0.000000
vn 0.000000 1.000000 0.000000
vn 0.000000 1.000000 0.000000
vn 0.000000 1.000000 0.000000
vn 0.000000 1.000000 0.000000
vn 0.000000 1.000000 0.000000
vn 0.000000 1.000000 0.000000
vn -1.000000 0.000000 0.000000
vn -1.000000 0.000000 0.000000
vn -1.000000 0.000000 0.000000
vn -1.000000 0.000000 0.000000
vn 0.000000 -1.000000 0.000000
vn 0.000000 -1.000000 0.000000
vn 0.000000 -1.000000 0.000000
vn 0.000000 -1.000000 0.000000
vn 0.000000 -1.000000 0.000000
vn 0.000000 -1.000000 0.000000
vn 0.000000 -1.000000 0.000000
vn 0.000000 -1.000000 0.000000
vn 0.000000 -1.000000 0.000000
vn 0.000000 -1.000000 0.000000
vn 0.000000 -1.000000 0.000000
vn 0.000000 -1.000000 0.000000
vn 0.000000 -1.000000 0.000000
vn 0.000000 -1.000000 0.000000
vn 1.000000 0.000000 0.000000
vn 1.000000 0.000000 0.000000
vn 1.000000 0.000000 0.000000
vn 1.000000 0.000000 0.000000
vn 0.000000 1.000000 0.000000
vn 0.000000 1.000000 0.000000
vn 0.000000 1.000000 0.000000
vn 0.000000 1.000000 0.000000
vn 0.000000 1.000000 0.000000
vn 0.000000 1.000000 0.000000
vn 0.000000 1.000000 0.000000
vn 0.000000 1.000000 0.000000
vn 0.000000 1.000000 0.000000
vn 0.000000 1.000000 0.000000
vn 0.000000 1.000000 0.000000
vn 0.000000 1.000000 0.000000
vn 0.000000 1.000000 0.000000
vn -1.000000 0.000000 0.000000
vn -1.000000 0.000000 0.000000
vn 0.000000 -1.000000 0.000000
vn 0.000000 -1.000000 0.000000
vn 0.000000 -1.000000 0.000000
vn 0.000000 -1.000000 0.000000
vn 0.000000 -1.000000 0.000000
vn 0.000000 -1.000000 0.000000
vn 0.000000 -1.000000 0.000000
vn 1.000000 0.000000 0.000000
vn 1.000000 0.000000 0.000000
vn 0.000000 1.000000 0.000000
vn 0.000000 1.000000 0.000000
vn 0.000000 1.000000 0.000000
vn 0.000000 1.000000 0.000000
vn 0.000000 1.000000 0.000000
vn 0.000000 1.000000 0.000000
vn 0.000000 1.000000 0.000000
vn 0.000000 1.000000 0.000000
vn 0.000000 1.000000 0.000000
vn -1.000000 0.000000 0.000000
vn -1.000000 0.000000 0.000000
vn 0.000000 -1.000000 0.000000
vn 0.000000 -1.000000 0.000000
vn 0.000000 -1.000000 0.000000
vn 0.000000 -1.000000 0.000000
vn 0.000000 -1.000000 0.000000
vn 0.000000 -1.000000 0.000000
vn 0.000000 -1.000000 0.000000
vn 1.000000 0.000000 0.000000
vn 1.000000 0.000000 0.000000
vn 0.000000 1.000000 0.000000
vn 0.000000 1.000000 0.000000
vn 0.000000 1.000000 0.000000
vn 0.000000 1.000000 0.000000
vn 0.000000 1.000000 0.000000
vn 0.000000 1.000000 0.000000
vn 0.000000 1.000000 0.000000
vn 0.000000 1.000000 0.000000
vn 0.000000 1.000000 0.000000
vn 0.000000 1.000000 0.000000
vn 0.000000 1.000000 0.000000
vn 0.000000 1.000000 0.000000
vn 0.000000 1.000000 0.000000
vn 0.000000 1.000000 0.000000
vn 0.000000 1.000000 0.000000
vn -1.000000 0.000000 0.000000
vn -1.000000 0.000000 0.000000
vn 0.000000 -1.000000 0.000000
vn 0.000000 -1.000000 0.000000
vn 0.000000 -1.000000 0.000000
vn 0.000000 -1.000000 0.000000
vn 0.000000 -1.000000 0.000000
vn 0.000000 -1.000000 0.000000
vn 0.000000 -1.000000 0.000000
vn 1.000000 0.000000 0.000000
vn 1.000000 0.000000 0.000000
vn 0.000000 1.000000 0.000000
vn 0.000000 1.000000 0.000000
vn 0.000000 1.000000 0.000000
vn 0.000000 1.000000 0.000000
vn 0.000000 0.000000 1.000000
vn 0.000000 0.000000 1.000000
vn -1.000000 0.000000 0.000000
vn -1.000000 0.000000 0.000000
vn 0.000000 0.000000 1.000000
vn 0.000000 0.000000 1.000000
vn 0.000000 0.000000 -1.000000
vn 0.000000 0.000000 -1.000000
vn 0.000000 0.000000 -1.000000
vn 0.000000 0.000000 -1.000000
vn 0.000000 0.000000 1.000000
vn 0.000000 0.000000 -1.000000
vn 0.000000 0.000000 -1.000000
vn 0.000000 0.000000 1.000000
vn 1.000000 0.000000 0.000000
vn 1.000000 0.000000 0.000000
vn 0.000000 0.000000 1.000000
vn 0.000000 0.000000 -1.000000
vn 0.000000 0.000000 -1.000000
vn 0.000000 0.000000 -1.000000
vn 0.000000 0.000000 -1.000000
vn 1.000000 0.000000 0.000000
vn 1.000000 0.000000 0.000000
vn 1.000000 0.000000 0.000000
vn 1.000000 0.000000 0.000000
vn -1.000000 0.000000 0.000000
vn -1.000000 0.000000 0.000000
vn 1.000000 0.000000 0.000000
vn 1.000000 0.000000 0.000000
vn -1.000000 0.000000 0.000000
vn -1.000000 0.000000 0.000000
vn -1.000000 0.000000 0.000000
vn -1.000000 0.000000 0.000000
vn 1.000000 0.000000 0.000000
vn 1.000000 0.000000 0.000000
vn -1.000000 0.000000 0.000000
vn 1.000000 0.000000 0.000000
vn -1.000000 0.000000 0.000000
vn -1.000000 0.000000 0.000000
vn 1.000000 0.000000 0.000000
vn 1.000000 0.000000 0.000000
vn -1.000000 0.000000 0.000000
vn 1.000000 0.000000 0.000000
vn -1.000000 0.000000 0.000000
vn -1.000000 0.000000 0.000000
vn 1.000000 0.000000 0.000000
vn 1.000000 0.000000 0.000000
vn -1.000000 0.000000 0.000000
vn -1.000000 0.000000 0.000000
vn 0.000000 0.000000 1.000000
vn 0.000000 0.000000 1.000000
vn 0.000000 0.000000 1.000000
vn 0.000000 0.000000 1.000000
vn 0.000000 0.000000 -1.000000
vn 0.000000 0.000000 -1.000000
vn 0.000000 0.000000 1.000000
vn 0.000000 0.000000 1.000000
vn 0.000000 0.000000 -1.000000
vn 0.000000 0.000000 -1.000000
vn -1.000000 0.000000 0.000000
vn 1.000000 0.000000 0.000000
vn 0.000000 0.000000 -1.000000
vn 0.000000 0.000000 -1.000000
vn 0.000000 0.000000 1.000000
vn 0.000000 0.000000 1.000000
vn 0.000000 0.000000 1.000000
vn 0.000000 0.000000 1.000000
vn 0.000000 0.000000 -1.000000
s 1
g pCube1
usemtl initialShadingGroup
f 1/1/1 28/38/2 3/3/3
f 3/3/3 28/38/2 25/35/4
s 2
f 99/130/5 100/131/6 102/132/7
f 102/132/7 100/131/6 101/143/8
s 3
f 5/5/9 26/36/10 7/7/11
f 7/7/11 26/36/10 27/37/12
s 4
f 75/100/13 76/101/14 1/9/15
f 1/9/15 76/101/14 28/39/16
s 5
f 2/2/17 81/107/18 4/4/19
f 4/4/19 81/107/18 82/109/20
s 6
f 75/99/21 1/1/22 74/97/23
f 74/97/23 1/1/22 3/3/24
s 2
f 103/133/25 104/134/26 106/136/27
f 106/136/27 104/134/26 105/135/28
s 3
f 11/17/29 10/16/30 15/22/31
f 15/22/31 10/16/30 14/21/32
s 4
f 12/19/33 78/103/34 16/24/35
f 16/24/35 78/103/34 79/104/36
s 1
f 9/15/37 12/18/38 13/20/39
f 13/20/39 12/18/38 16/23/40
s 2
f 104/134/26 107/137/41 105/135/28
f 105/135/28 107/137/41 108/138/42
s 3
f 15/22/31 14/21/32 19/27/43
f 19/27/43 14/21/32 18/26/44
s 4
f 16/24/35 79/104/36 20/29/45
f 20/29/45 79/104/36 80/105/46
s 1
f 13/20/39 16/23/40 17/25/47
f 17/25/47 16/23/40 20/28/48
s 2
f 107/137/41 109/139/49 108/138/42
f 108/138/42 109/139/49 110/140/50
s 3
f 19/27/43 18/26/44 8/8/51
f 8/8/51 18/26/44 6/6/52
s 4
f 20/29/45 80/105/46 2/10/53
f 2/10/53 80/105/46 81/106/54
s 1
f 17/25/47 20/28/48 4/4/55
f 4/4/55 20/28/48 2/2/56
s 2
f 111/141/57 103/133/25 112/142/58
f 112/142/58 103/133/25 106/136/27
s 3
f 23/32/59 22/31/60 11/17/29
f 11/17/29 22/31/60 10/16/30
s 4
f 24/34/61 77/102/62 12/19/33
f 12/19/33 77/102/62 78/103/34
s 1
f 21/30/63 24/33/64 9/15/37
f 9/15/37 24/33/64 12/18/38
s 2
f 100/131/6 111/141/57 101/143/8
f 101/143/8 111/141/57 112/142/58
s 3
f 27/37/12 26/36/10 23/32/59
f 23/32/59 26/36/10 22/31/60
s 4
f 28/39/16 76/101/14 24/34/61
f 24/34/61 76/101/14 77/102/62
s 1
f 25/35/4 28/38/2 21/30/63
f 21/30/63 28/38/2 24/33/64
s 14
f 30/41/65 29/40/66 58/77/67
f 58/77/67 29/40/66 57/76/68
f 31/42/69 30/41/65 59/78/70
f 59/78/70 30/41/65 58/77/67
s 2
f 114/147/71 113/144/72 116/146/73
f 116/146/73 113/144/72 115/145/74
s 6
f 61/81/75 33/45/76 60/79/77
f 60/79/77 33/45/76 32/43/78
s 4
f 61/82/79 62/83/80 33/46/81
f 33/46/81 62/83/80 34/47/82
f 35/48/83 34/47/82 63/84/84
f 63/84/84 34/47/82 62/83/80
f 36/49/85 35/48/83 64/85/86
f 64/85/86 35/48/83 63/84/84
f 37/50/87 36/49/85 65/86/88
f 65/86/88 36/49/85 64/85/86
f 38/51/89 37/50/87 66/87/90
f 66/87/90 37/50/87 65/86/88
f 39/52/91 38/51/89 67/88/92
f 67/88/92 38/51/89 66/87/90
s 5
f 40/55/93 39/53/94 68/91/95
f 68/91/95 39/53/94 67/89/96
s 2
f 118/151/97 117/148/98 120/150/99
f 120/150/99 117/148/98 119/149/100
s 14
f 42/57/101 41/56/102 70/93/103
f 70/93/103 41/56/102 69/92/104
f 29/40/66 42/57/101 57/76/68
f 57/76/68 42/57/101 70/93/103
f 44/59/105 43/58/106 30/41/65
f 30/41/65 43/58/106 29/40/66
f 45/60/107 44/59/105 31/42/69
f 31/42/69 44/59/105 30/41/65
s 2
f 122/153/108 121/152/109 114/147/71
f 114/147/71 121/152/109 113/144/72
s 6
f 33/45/76 47/63/110 32/43/78
f 32/43/78 47/63/110 46/61/111
s 4
f 33/46/81 34/47/82 47/64/112
f 47/64/112 34/47/82 48/65/113
f 49/66/114 48/65/113 35/48/83
f 35/48/83 48/65/113 34/47/82
f 50/67/115 49/66/114 36/49/85
f 36/49/85 49/66/114 35/48/83
f 51/68/116 50/67/115 37/50/87
f 37/50/87 50/67/115 36/49/85
f 52/69/117 51/68/116 38/51/89
f 38/51/89 51/68/116 37/50/87
f 53/70/118 52/69/117 39/52/91
f 39/52/91 52/69/117 38/51/89
s 5
f 54/73/119 53/71/120 40/55/93
f 40/55/93 53/71/120 39/53/94
s 2
f 124/155/121 123/154/122 118/151/97
f 118/151/97 123/154/122 117/148/98
s 14
f 56/75/123 55/74/124 42/57/101
f 42/57/101 55/74/124 41/56/102
f 43/58/106 56/75/123 29/40/66
f 29/40/66 56/75/123 42/57/101
f 58/77/67 57/76/68 86/113/125
f 86/113/125 57/76/68 85/112/126
f 59/78/70 58/77/67 87/114/127
f 87/114/127 58/77/67 86/113/125
s 2
f 116/146/73 115/145/74 126/157/128
f 126/157/128 115/145/74 125/156/129
s 6
f 89/117/130 61/81/75 88/115/131
f 88/115/131 61/81/75 60/79/77
s 4
f 89/118/132 90/119/133 61/82/79
f 61/82/79 90/119/133 62/83/80
f 63/84/84 62/83/80 91/120/134
f 91/120/134 62/83/80 90/119/133
f 64/85/86 63/84/84 92/121/135
f 92/121/135 63/84/84 91/120/134
f 65/86/88 64/85/86 93/122/136
f 93/122/136 64/85/86 92/121/135
f 66/87/90 65/86/88 94/123/137
f 94/123/137 65/86/88 93/122/136
f 67/88/92 66/87/90 95/124/138
f 95/124/138 66/87/90 94/123/137
s 5
f 68/91/95 67/89/96 96/127/139
f 96/127/139 67/89/96 95/125/140
s 2
f 120/150/99 119/149/100 128/159/141
f 128/159/141 119/149/100 127/158/142
s 14
f 70/93/103 69/92/104 98/129/143
f 98/129/143 69/92/104 97/128/144
f 57/76/68 70/93/103 85/112/126
f 85/112/126 70/93/103 98/129/143
f 72/95/145 71/94/146 44/59/105
f 44/59/105 71/94/146 43/58/106
f 73/96/147 72/95/145 45/60/107
f 45/60/107 72/95/145 44/59/105
s 2
f 102/132/7 101/143/8 122/153/108
f 122/153/108 101/143/8 121/152/109
s 6
f 47/63/110 75/99/21 46/61/111
f 46/61/111 75/99/21 74/97/23
s 4
f 47/64/112 48/65/113 75/100/13
f 75/100/13 48/65/113 76/101/14
f 77/102/62 76/101/14 49/66/114
f 49/66/114 76/101/14 48/65/113
f 78/103/34 77/102/62 50/67/115
f 50/67/115 77/102/62 49/66/114
f 79/104/36 78/103/34 51/68/116
f 51/68/116 78/103/34 50/67/115
f 80/105/46 79/104/36 52/69/117
f 52/69/117 79/104/36 51/68/116
f 81/106/54 80/105/46 53/70/118
f 53/70/118 80/105/46 52/69/117
s 5
f 82/109/20 81/107/18 54/73/119
f 54/73/119 81/107/18 53/71/120
s 2
f 108/138/42 110/140/50 124/155/121
f 124/155/121 110/140/50 123/154/122
s 14
f 84/111/148 83/110/149 56/75/123
f 56/75/123 83/110/149 55/74/124
f 71/94/146 84/111/148 43/58/106
f 43/58/106 84/111/148 56/75/123
s 2
f 130/160/150 129/161/151 132/163/152
f 132/163/152 129/161/151 131/162/153
f 125/156/129 130/160/150 133/164/154
f 133/164/154 130/160/150 132/163/152
f 126/157/128 125/156/129 134/165/155
f 134/165/155 125/156/129 133/164/154
s 6
f 7/13/156 89/117/130 5/14/157
f 5/14/157 89/117/130 88/115/131
s 4
f 7/7/158 27/37/159 89/118/132
f 89/118/132 27/37/159 90/119/133
f 91/120/134 90/119/133 23/32/160
f 23/32/160 90/119/133 27/37/159
f 92/121/135 91/120/134 11/17/161
f 11/17/161 91/120/134 23/32/160
f 93/122/136 92/121/135 15/22/162
f 15/22/162 92/121/135 11/17/161
f 94/123/137 93/122/136 19/27/163
f 19/27/163 93/122/136 15/22/162
f 95/124/138 94/123/137 8/8/164
f 8/8/164 94/123/137 19/27/163
s 5
f 96/127/139 95/125/140 6/12/165
f 6/12/165 95/125/140 8/11/166
s 2
f 128/159/141 127/158/142 136/167/167
f 136/167/167 127/158/142 135/166/168
f 137/168/169 128/159/141 138/169/170
f 138/169/170 128/159/141 136/167/167
f 129/161/151 137/168/169 131/162/153
f 131/162/153 137/168/169 138/169/170
s 1
f 3/3/3 25/35/4 99/130/171
f 99/130/171 25/35/4 100/131/172
s 6
f 74/98/23 3/3/24 102/132/173
f 102/132/173 3/3/24 99/130/174
s 1
f 9/15/37 13/20/39 103/133/175
f 103/133/175 13/20/39 104/134/176
s 40
f 84/111/177 71/94/178 105/135/179
f 105/135/179 71/94/178 106/136/180
s 1
f 13/20/39 17/25/47 104/134/176
f 104/134/176 17/25/47 107/137/181
s 40
f 83/110/182 84/111/177 108/138/183
f 108/138/183 84/111/177 105/135/179
s 1
f 17/25/47 4/4/55 107/137/181
f 107/137/181 4/4/55 109/139/184
s 5
f 4/4/19 82/108/20 109/139/185
f 109/139/185 82/108/20 110/140/186
s 1
f 21/30/63 9/15/37 111/141/187
f 111/141/187 9/15/37 103/133/175
s 40
f 71/94/178 72/95/188 106/136/180
f 106/136/180 72/95/188 112/142/189
s 1
f 25/35/4 21/30/63 100/131/172
f 100/131/172 21/30/63 111/141/187
s 40
f 72/95/188 73/96/190 112/142/189
f 112/142/189 73/96/190 101/143/191
s 41
f 31/42/192 59/78/193 113/144/194
f 113/144/194 59/78/193 115/145/195
s 6
f 60/80/77 32/44/78 116/146/196
f 116/146/196 32/44/78 114/147/197
s 5
f 40/54/93 68/90/95 117/148/198
f 117/148/198 68/90/95 119/149/199
s 42
f 69/92/200 41/56/201 120/150/202
f 120/150/202 41/56/201 118/151/203
s 41
f 45/60/204 31/42/192 121/152/205
f 121/152/205 31/42/192 113/144/194
s 6
f 32/44/78 46/62/111 114/147/197
f 114/147/197 46/62/111 122/153/206
s 5
f 54/72/119 40/54/93 123/154/207
f 123/154/207 40/54/93 117/148/198
s 42
f 41/56/201 55/74/208 118/151/203
f 118/151/203 55/74/208 124/155/209
s 41
f 59/78/193 87/114/210 115/145/195
f 115/145/195 87/114/210 125/156/211
s 6
f 88/116/131 60/80/77 126/157/212
f 126/157/212 60/80/77 116/146/196
s 5
f 68/90/95 96/126/139 119/149/199
f 119/149/199 96/126/139 127/158/213
s 42
f 97/128/214 69/92/200 128/159/215
f 128/159/215 69/92/200 120/150/202
s 41
f 73/96/216 45/60/204 101/143/217
f 101/143/217 45/60/204 121/152/205
s 6
f 46/62/111 74/98/23 122/153/206
f 122/153/206 74/98/23 102/132/173
s 5
f 82/108/20 54/72/119 110/140/186
f 110/140/186 54/72/119 123/154/207
s 42
f 55/74/208 83/110/218 124/155/209
f 124/155/209 83/110/218 108/138/219
s 43
f 86/113/220 85/112/221 130/160/222
f 130/160/222 85/112/221 129/161/223
s 3
f 10/16/30 22/31/60 131/162/224
f 131/162/224 22/31/60 132/163/225
s 43
f 87/114/226 86/113/220 125/156/227
f 125/156/227 86/113/220 130/160/222
s 3
f 22/31/60 26/36/10 132/163/225
f 132/163/225 26/36/10 133/164/228
f 26/36/10 5/5/9 133/164/228
f 133/164/228 5/5/9 134/165/229
s 6
f 5/5/157 88/116/131 134/165/230
f 134/165/230 88/116/131 126/157/212
s 5
f 96/126/139 6/6/165 127/158/213
f 127/158/213 6/6/165 135/166/231
s 3
f 6/6/52 18/26/44 135/166/232
f 135/166/232 18/26/44 136/167/233
s 43
f 98/129/234 97/128/235 137/168/236
f 137/168/236 97/128/235 128/159/237
s 3
f 18/26/44 14/21/32 136/167/233
f 136/167/233 14/21/32 138/169/238
s 43
f 85/112/221 98/129/234 129/161/223
f 129/161/223 98/129/234 137/168/236
s 3
f 14/21/32 10/16/30 138/169/238
f 138/169/238 10/16/30 131/162/224
