# This file uses centimeters as units for non-parametric coordinates.

mtllib box.mtl
g default
v -0.500000 -0.125000 0.500000
v -0.371628 -0.125000 0.500000
v 0.371628 -0.125000 0.500000
v 0.500000 -0.125000 0.500000
v -0.500000 0.125000 0.500000
v -0.371628 0.125000 0.500000
v 0.371628 0.125000 0.500000
v 0.500000 0.125000 0.500000
v -0.500000 0.125000 0.354853
v -0.371628 0.125000 0.354853
v 0.371628 0.125000 0.354853
v 0.500000 0.125000 0.354853
v -0.500000 0.125000 -0.354853
v -0.371628 0.125000 -0.354853
v 0.371628 0.125000 -0.354853
v 0.500000 0.125000 -0.354853
v -0.500000 0.125000 -0.500000
v -0.371628 0.125000 -0.500000
v 0.371628 0.125000 -0.500000
v 0.500000 0.125000 -0.500000
v -0.500000 -0.125000 -0.500000
v -0.371628 -0.125000 -0.500000
v 0.371628 -0.125000 -0.500000
v 0.500000 -0.125000 -0.500000
v -0.500000 -0.125000 -0.354853
v -0.371628 -0.125000 -0.354853
v 0.371628 -0.125000 -0.354853
v 0.500000 -0.125000 -0.354853
v -0.500000 -0.125000 0.354853
v -0.371628 -0.125000 0.354853
v 0.371628 -0.125000 0.354853
v 0.500000 -0.125000 0.354853
v -0.500000 0.359181 0.500000
v -0.371628 0.359181 0.500000
v -0.371628 0.359181 0.354853
v -0.500000 0.359181 0.354853
v 0.371628 0.359181 0.500000
v 0.371628 0.359181 0.354853
v 0.500000 0.359181 0.500000
v 0.500000 0.359181 0.354853
v -0.371628 0.359181 -0.354853
v -0.500000 0.359181 -0.354853
v 0.500000 0.359181 -0.354853
v 0.371628 0.359181 -0.354853
v -0.371628 0.359181 -0.500000
v -0.500000 0.359181 -0.500000
v 0.371628 0.359181 -0.500000
v 0.500000 0.359181 -0.500000
vt 0.375000 0.000000
vt 0.458333 0.000000
vt 0.541667 0.000000
vt 0.625000 0.000000
vt 0.375000 0.250000
vt 0.458333 0.250000
vt 0.541667 0.250000
vt 0.625000 0.250000
vt 0.375000 0.333333
vt 0.458333 0.333333
vt 0.541667 0.333333
vt 0.625000 0.333333
vt 0.375000 0.416667
vt 0.458333 0.416667
vt 0.541667 0.416667
vt 0.625000 0.416667
vt 0.375000 0.500000
vt 0.458333 0.500000
vt 0.541667 0.500000
vt 0.625000 0.500000
vt 0.375000 0.750000
vt 0.458333 0.750000
vt 0.541667 0.750000
vt 0.625000 0.750000
vt 0.375000 0.833333
vt 0.458333 0.833333
vt 0.541667 0.833333
vt 0.625000 0.833333
vt 0.375000 0.916667
vt 0.458333 0.916667
vt 0.541667 0.916667
vt 0.625000 0.916667
vt 0.375000 1.000000
vt 0.458333 1.000000
vt 0.541667 1.000000
vt 0.625000 1.000000
vt 0.875000 0.000000
vt 0.791667 0.000000
vt 0.708333 0.000000
vt 0.875000 0.250000
vt 0.791667 0.250000
vt 0.708333 0.250000
vt 0.125000 0.000000
vt 0.208333 0.000000
vt 0.291667 0.000000
vt 0.125000 0.250000
vt 0.208333 0.250000
vt 0.291667 0.250000
vt 0.375000 0.250000
vt 0.458333 0.250000
vt 0.375000 0.333333
vt 0.541667 0.250000
vt 0.541667 0.333333
vt 0.458333 0.333333
vt 0.625000 0.250000
vt 0.625000 0.333333
vt 0.458333 0.416667
vt 0.375000 0.416667
vt 0.625000 0.416667
vt 0.541667 0.416667
vt 0.458333 0.500000
vt 0.375000 0.500000
vt 0.541667 0.500000
vt 0.625000 0.500000
vn 0.000000 0.000000 1.000000
vn 0.000000 0.000000 1.000000
vn 0.000000 0.000000 1.000000
vn 0.000000 0.000000 1.000000
vn 0.000000 0.000000 1.000000
vn 0.000000 0.000000 1.000000
vn 0.000000 0.000000 1.000000
vn 0.000000 0.000000 1.000000
vn 0.000000 1.000000 0.000000
vn 0.000000 1.000000 0.000000
vn 0.000000 1.000000 0.000000
vn 0.000000 1.000000 0.000000
vn 0.000000 1.000000 0.000000
vn 0.000000 1.000000 0.000000
vn 0.000000 1.000000 0.000000
vn 0.000000 1.000000 0.000000
vn 0.000000 1.000000 0.000000
vn 0.000000 1.000000 0.000000
vn 0.000000 1.000000 0.000000
vn 0.000000 1.000000 0.000000
vn 0.000000 1.000000 0.000000
vn 0.000000 1.000000 0.000000
vn 0.000000 1.000000 0.000000
vn 0.000000 1.000000 0.000000
vn 0.000000 1.000000 0.000000
vn 0.000000 1.000000 0.000000
vn 0.000000 1.000000 0.000000
vn 0.000000 1.000000 0.000000
vn 0.000000 0.000000 -1.000000
vn 0.000000 0.000000 -1.000000
vn 0.000000 0.000000 -1.000000
vn 0.000000 0.000000 -1.000000
vn 0.000000 0.000000 -1.000000
vn 0.000000 0.000000 -1.000000
vn 0.000000 0.000000 -1.000000
vn 0.000000 0.000000 -1.000000
vn 0.000000 -1.000000 0.000000
vn 0.000000 -1.000000 0.000000
vn 0.000000 -1.000000 0.000000
vn 0.000000 -1.000000 0.000000
vn 0.000000 -1.000000 0.000000
vn 0.000000 -1.000000 0.000000
vn 0.000000 -1.000000 0.000000
vn 0.000000 -1.000000 0.000000
vn 0.000000 -1.000000 0.000000
vn 0.000000 -1.000000 0.000000
vn 0.000000 -1.000000 0.000000
vn 0.000000 -1.000000 0.000000
vn 0.000000 -1.000000 0.000000
vn 0.000000 -1.000000 0.000000
vn 0.000000 -1.000000 0.000000
vn 0.000000 -1.000000 0.000000
vn 1.000000 0.000000 0.000000
vn 1.000000 0.000000 0.000000
vn 1.000000 0.000000 0.000000
vn 1.000000 0.000000 0.000000
vn 1.000000 0.000000 0.000000
vn 1.000000 0.000000 0.000000
vn 1.000000 0.000000 0.000000
vn 1.000000 0.000000 0.000000
vn -1.000000 0.000000 0.000000
vn -1.000000 0.000000 0.000000
vn -1.000000 0.000000 0.000000
vn -1.000000 0.000000 0.000000
vn -1.000000 0.000000 0.000000
vn -1.000000 0.000000 0.000000
vn -1.000000 0.000000 0.000000
vn -1.000000 0.000000 0.000000
vn 0.000000 0.000000 1.000000
vn 0.000000 0.000000 1.000000
vn -1.000000 0.000000 0.000000
vn -1.000000 0.000000 0.000000
vn 0.000000 0.000000 1.000000
vn 0.000000 0.000000 -1.000000
vn 0.000000 0.000000 -1.000000
vn 0.000000 0.000000 -1.000000
vn 0.000000 0.000000 -1.000000
vn 0.000000 0.000000 1.000000
vn 1.000000 0.000000 0.000000
vn 1.000000 0.000000 0.000000
vn 1.000000 0.000000 0.000000
vn 1.000000 0.000000 0.000000
vn 1.000000 0.000000 0.000000
vn 1.000000 0.000000 0.000000
vn -1.000000 0.000000 0.000000
vn 1.000000 0.000000 0.000000
vn -1.000000 0.000000 0.000000
vn -1.000000 0.000000 0.000000
vn -1.000000 0.000000 0.000000
vn -1.000000 0.000000 0.000000
vn 0.000000 0.000000 -1.000000
vn 0.000000 0.000000 -1.000000
vn -1.000000 0.000000 0.000000
vn 0.000000 0.000000 1.000000
vn 0.000000 0.000000 1.000000
vn 0.000000 0.000000 1.000000
vn 0.000000 0.000000 1.000000
vn 0.000000 0.000000 -1.000000
vn 1.000000 0.000000 0.000000
vn 0.000000 0.000000 -1.000000
s 1
g pCube1
usemtl initialShadingGroup
f 1/1/1 2/2/2 5/5/3
f 5/5/3 2/2/2 6/6/4
f 2/2/2 3/3/5 6/6/4
f 6/6/4 3/3/5 7/7/6
f 3/3/5 4/4/7 7/7/6
f 7/7/6 4/4/7 8/8/8
s 2
f 33/49/9 34/50/10 36/51/11
f 36/51/11 34/50/10 35/54/12
f 34/50/10 37/52/13 35/54/12
f 35/54/12 37/52/13 38/53/14
f 37/52/13 39/55/15 38/53/14
f 38/53/14 39/55/15 40/56/16
f 36/51/11 35/54/12 42/58/17
f 42/58/17 35/54/12 41/57/18
s 3
f 10/10/19 11/11/20 14/14/21
f 14/14/21 11/11/20 15/15/22
s 2
f 38/53/14 40/56/16 44/60/23
f 44/60/23 40/56/16 43/59/24
f 42/58/17 41/57/18 46/62/25
f 46/62/25 41/57/18 45/61/26
f 41/57/18 44/60/23 45/61/26
f 45/61/26 44/60/23 47/63/27
f 44/60/23 43/59/24 47/63/27
f 47/63/27 43/59/24 48/64/28
s 4
f 17/17/29 18/18/30 21/21/31
f 21/21/31 18/18/30 22/22/32
f 18/18/30 19/19/33 22/22/32
f 22/22/32 19/19/33 23/23/34
f 19/19/33 20/20/35 23/23/34
f 23/23/34 20/20/35 24/24/36
s 5
f 21/21/37 22/22/38 25/25/39
f 25/25/39 22/22/38 26/26/40
f 22/22/38 23/23/41 26/26/40
f 26/26/40 23/23/41 27/27/42
f 23/23/41 24/24/43 27/27/42
f 27/27/42 24/24/43 28/28/44
f 25/25/39 26/26/40 29/29/45
f 29/29/45 26/26/40 30/30/46
f 26/26/40 27/27/42 30/30/46
f 30/30/46 27/27/42 31/31/47
f 27/27/42 28/28/44 31/31/47
f 31/31/47 28/28/44 32/32/48
f 29/29/45 30/30/46 1/33/49
f 1/33/49 30/30/46 2/34/50
f 30/30/46 31/31/47 2/34/50
f 2/34/50 31/31/47 3/35/51
f 31/31/47 32/32/48 3/35/51
f 3/35/51 32/32/48 4/36/52
s 6
f 28/38/53 24/37/54 16/41/55
f 16/41/55 24/37/54 20/40/56
f 32/39/57 28/38/53 12/42/58
f 12/42/58 28/38/53 16/41/55
f 4/4/59 32/39/57 8/8/60
f 8/8/60 32/39/57 12/42/58
s 7
f 21/43/61 25/44/62 17/46/63
f 17/46/63 25/44/62 13/47/64
f 25/44/62 29/45/65 13/47/64
f 13/47/64 29/45/65 9/48/66
f 29/45/65 1/1/67 9/48/66
f 9/48/66 1/1/67 5/5/68
s 1
f 5/5/3 6/6/4 33/49/69
f 33/49/69 6/6/4 34/50/70
s 7
f 9/9/66 5/5/68 36/51/71
f 36/51/71 5/5/68 33/49/72
s 1
f 6/6/4 7/7/6 34/50/70
f 34/50/70 7/7/6 37/52/73
s 8
f 11/11/74 10/10/75 38/53/76
f 38/53/76 10/10/75 35/54/77
s 1
f 7/7/6 8/8/8 37/52/73
f 37/52/73 8/8/8 39/55/78
s 6
f 8/8/60 12/12/58 39/55/79
f 39/55/79 12/12/58 40/56/80
s 9
f 10/10/81 14/14/82 35/54/83
f 35/54/83 14/14/82 41/57/84
s 7
f 13/13/64 9/9/66 42/58/85
f 42/58/85 9/9/66 36/51/71
s 6
f 12/12/58 16/16/55 40/56/80
f 40/56/80 16/16/55 43/59/86
s 10
f 15/15/87 11/11/88 44/60/89
f 44/60/89 11/11/88 38/53/90
s 4
f 18/18/30 17/17/29 45/61/91
f 45/61/91 17/17/29 46/62/92
s 7
f 17/17/63 13/13/64 46/62/93
f 46/62/93 13/13/64 42/58/85
s 11
f 14/14/94 15/15/95 41/57/96
f 41/57/96 15/15/95 44/60/97
s 4
f 19/19/33 18/18/30 47/63/98
f 47/63/98 18/18/30 45/61/91
s 6
f 16/16/55 20/20/56 43/59/86
f 43/59/86 20/20/56 48/64/99
s 4
f 20/20/35 19/19/33 48/64/100
f 48/64/100 19/19/33 47/63/98
