# Blender v2.83.4 OBJ File: 'JustSatRing.blend'
# www.blender.org
mtllib JustSatRing.mtl
o SaturnRing_Torus.002
v 2.162000 0.000000 0.000000
v 1.316750 0.008487 0.000000
v 1.316750 -0.008487 0.000000
v 2.140960 0.000000 -0.261645
v 1.303936 0.008487 -0.159353
v 1.303936 -0.008487 -0.159353
v 2.078248 0.000000 -0.518198
v 1.265741 0.008487 -0.315605
v 1.265741 -0.008487 -0.315605
v 1.975085 0.000000 -0.764665
v 1.202911 0.008487 -0.465714
v 1.202911 -0.008487 -0.465714
v 1.833480 0.000000 -0.996248
v 1.116668 0.008487 -0.606758
v 1.116668 -0.008487 -0.606758
v 1.656188 0.000000 -1.208441
v 1.008689 0.008487 -0.735992
v 1.008689 -0.008487 -0.735992
v 1.446660 0.000000 -1.397112
v 0.881078 0.008487 -0.850901
v 0.881078 -0.008487 -0.850901
v 1.208975 0.000000 -1.558591
v 0.736317 0.008487 -0.949248
v 0.736317 -0.008487 -0.949248
v 0.947758 0.000000 -1.689733
v 0.577225 0.008487 -1.029119
v 0.577225 -0.008487 -1.029119
v 0.668095 0.000000 -1.787986
v 0.406898 0.008487 -1.088960
v 0.406898 -0.008487 -1.088960
v 0.375427 0.000000 -1.851439
v 0.228651 0.008487 -1.127605
v 0.228651 -0.008487 -1.127605
v 0.075452 0.000000 -1.878855
v 0.045954 0.008487 -1.144303
v 0.045954 -0.008487 -1.144303
v -0.225991 0.000000 -1.869701
v -0.137638 0.008487 -1.138728
v -0.137638 -0.008487 -1.138728
v -0.523035 0.000000 -1.824156
v -0.318551 0.008487 -1.110989
v -0.318551 -0.008487 -1.110989
v -0.809900 0.000000 -1.743106
v -0.493263 0.008487 -1.061626
v -0.493263 -0.008487 -1.061626
v -1.081000 0.000000 -1.628128
v -0.658375 0.008487 -0.991599
v -0.658375 -0.008487 -0.991599
v -1.331060 0.000000 -1.481460
v -0.810672 0.008487 -0.902272
v -0.810672 -0.008487 -0.902272
v -1.555213 0.000000 -1.305958
v -0.947191 0.008487 -0.795384
v -0.947191 -0.008487 -0.795384
v -1.749095 0.000000 -1.105036
v -1.065273 0.008487 -0.673014
v -1.065273 -0.008487 -0.673014
v -1.908933 0.000000 -0.882607
v -1.162621 0.008487 -0.537545
v -1.162621 -0.008487 -0.537545
v -2.031615 0.000000 -0.642999
v -1.237340 0.008487 -0.391613
v -1.237340 -0.008487 -0.391613
v -2.114755 0.000000 -0.390874
v -1.287976 0.008487 -0.238059
v -1.287976 -0.008487 -0.238059
v -2.156734 0.000000 -0.131142
v -1.313543 0.008487 -0.079871
v -1.313543 -0.008487 -0.079871
v -2.156734 0.000000 0.131142
v -1.313543 0.008487 0.079871
v -1.313543 -0.008487 0.079871
v -2.114755 0.000000 0.390874
v -1.287976 0.008487 0.238059
v -1.287976 -0.008487 0.238059
v -2.031615 0.000000 0.642998
v -1.237340 0.008487 0.391613
v -1.237340 -0.008487 0.391613
v -1.908933 0.000000 0.882606
v -1.162622 0.008487 0.537545
v -1.162622 -0.008487 0.537545
v -1.749095 0.000000 1.105036
v -1.065273 0.008487 0.673014
v -1.065273 -0.008487 0.673014
v -1.555213 0.000000 1.305958
v -0.947191 0.008487 0.795384
v -0.947191 -0.008487 0.795384
v -1.331060 0.000000 1.481460
v -0.810672 0.008487 0.902272
v -0.810672 -0.008487 0.902272
v -1.081000 0.000000 1.628128
v -0.658375 0.008487 0.991599
v -0.658375 -0.008487 0.991599
v -0.809901 0.000000 1.743105
v -0.493264 0.008487 1.061625
v -0.493264 -0.008487 1.061625
v -0.523036 0.000000 1.824156
v -0.318551 0.008487 1.110989
v -0.318551 -0.008487 1.110989
v -0.225991 0.000000 1.869701
v -0.137638 0.008487 1.138728
v -0.137638 -0.008487 1.138728
v 0.075452 0.000000 1.878855
v 0.045954 0.008487 1.144303
v 0.045954 -0.008487 1.144303
v 0.375427 0.000000 1.851439
v 0.228651 0.008487 1.127605
v 0.228651 -0.008487 1.127605
v 0.668095 0.000000 1.787986
v 0.406898 0.008487 1.088960
v 0.406898 -0.008487 1.088960
v 0.947757 0.000000 1.689733
v 0.577225 0.008487 1.029120
v 0.577225 -0.008487 1.029120
v 1.208974 0.000000 1.558591
v 0.736317 0.008487 0.949248
v 0.736317 -0.008487 0.949248
v 1.446660 0.000000 1.397113
v 0.881077 0.008487 0.850901
v 0.881077 -0.008487 0.850901
v 1.656188 0.000000 1.208441
v 1.008689 0.008487 0.735992
v 1.008689 -0.008487 0.735992
v 1.833480 0.000000 0.996248
v 1.116668 0.008487 0.606758
v 1.116668 -0.008487 0.606758
v 1.975086 0.000000 0.764665
v 1.202911 0.008487 0.465713
v 1.202911 -0.008487 0.465713
v 2.078247 0.000000 0.518199
v 1.265741 0.008487 0.315605
v 1.265741 -0.008487 0.315605
v 2.140960 0.000000 0.261646
v 1.303935 0.008487 0.159354
v 1.303935 -0.008487 0.159354
vt 0.533333 0.666667
vt 0.511111 1.000000
vt 0.511111 0.666667
vt 0.533333 0.000000
vt 0.511111 0.333333
vt 0.511111 0.000000
vt 0.533333 0.333333
vt 0.555556 1.000000
vt 0.533333 1.000000
vt 0.555556 0.000000
vt 0.555556 0.333333
vt 0.555556 0.666667
vt 0.577778 1.000000
vt 0.577778 0.000000
vt 0.577778 0.333333
vt 0.577778 0.666667
vt 0.600000 1.000000
vt 0.600000 0.000000
vt 0.600000 0.333333
vt 0.622222 0.666667
vt 0.600000 0.666667
vt 0.622222 0.000000
vt 0.622222 0.333333
vt 0.644444 0.666667
vt 0.622222 1.000000
vt 0.644444 0.000000
vt 0.644444 0.333333
vt 0.666667 0.666667
vt 0.644444 1.000000
vt 0.666667 0.000000
vt 0.688889 0.666667
vt 0.666667 1.000000
vt 0.688889 0.000000
vt 0.666667 0.333333
vt 0.711111 0.666667
vt 0.688889 1.000000
vt 0.711111 0.000000
vt 0.688889 0.333333
vt 0.711111 0.333333
vt 0.733333 0.666667
vt 0.711111 1.000000
vt 0.733333 0.000000
vt 0.733333 0.333333
vt 0.755556 1.000000
vt 0.733333 1.000000
vt 0.755556 0.000000
vt 0.755556 0.666667
vt 0.777778 0.666667
vt 0.777778 0.000000
vt 0.755556 0.333333
vt 0.777778 0.333333
vt 0.800000 1.000000
vt 0.777778 1.000000
vt 0.800000 0.000000
vt 0.800000 0.333333
vt 0.822222 0.666667
vt 0.800000 0.666667
vt 0.822222 0.000000
vt 0.822222 0.333333
vt 0.844444 0.666667
vt 0.822222 1.000000
vt 0.844444 0.000000
vt 0.866667 0.666667
vt 0.844444 1.000000
vt 0.866667 0.000000
vt 0.844444 0.333333
vt 0.888889 1.000000
vt 0.866667 1.000000
vt 0.888889 0.000000
vt 0.866667 0.333333
vt 0.888889 0.333333
vt 0.888889 0.666667
vt 0.911111 1.000000
vt 0.911111 0.000000
vt 0.911111 0.333333
vt 0.933333 0.666667
vt 0.911111 0.666667
vt 0.933333 0.000000
vt 0.933333 0.333333
vt 0.955556 0.666667
vt 0.933333 1.000000
vt 0.955556 0.000000
vt 0.955556 0.333333
vt 0.977778 1.000000
vt 0.955556 1.000000
vt 0.977778 0.000000
vt 0.977778 0.333333
vt 0.977778 0.666667
vt 1.000000 1.000000
vt 1.000000 0.000000
vt 1.000000 0.333333
vt 0.022222 0.666667
vt 0.000000 1.000000
vt 0.000000 0.666667
vt 0.022222 0.000000
vt 0.000000 0.333333
vt 0.000000 0.000000
vt 0.022222 0.333333
vt 0.044444 0.666667
vt 0.022222 1.000000
vt 0.044444 0.000000
vt 0.066667 0.666667
vt 0.044444 1.000000
vt 0.066667 0.000000
vt 0.044444 0.333333
vt 0.066667 0.333333
vt 0.088889 0.666667
vt 0.066667 1.000000
vt 0.088889 0.000000
vt 0.088889 0.333333
vt 0.111111 0.666667
vt 0.088889 1.000000
vt 0.111111 0.000000
vt 0.111111 0.333333
vt 0.133333 1.000000
vt 0.111111 1.000000
vt 0.133333 0.000000
vt 0.133333 0.666667
vt 0.155556 0.666667
vt 0.155556 0.000000
vt 0.133333 0.333333
vt 0.177778 0.666667
vt 0.155556 1.000000
vt 0.177778 0.000000
vt 0.155556 0.333333
vt 0.177778 0.333333
vt 0.200000 0.666667
vt 0.177778 1.000000
vt 0.200000 0.000000
vt 0.200000 0.333333
vt 0.222222 0.666667
vt 0.200000 1.000000
vt 0.222222 0.000000
vt 0.222222 0.333333
vt 0.244444 0.666667
vt 0.222222 1.000000
vt 0.244444 0.000000
vt 0.244444 0.333333
vt 0.266667 1.000000
vt 0.244444 1.000000
vt 0.266667 0.000000
vt 0.266667 0.333333
vt 0.266667 0.666667
vt 0.288889 1.000000
vt 0.288889 0.000000
vt 0.288889 0.666667
vt 0.311111 0.666667
vt 0.311111 0.000000
vt 0.288889 0.333333
vt 0.311111 0.333333
vt 0.333333 0.666667
vt 0.311111 1.000000
vt 0.333333 0.000000
vt 0.333333 0.333333
vt 0.355556 0.666667
vt 0.333333 1.000000
vt 0.355556 0.000000
vt 0.377778 0.666667
vt 0.355556 1.000000
vt 0.377778 0.000000
vt 0.355556 0.333333
vt 0.400000 0.666667
vt 0.377778 1.000000
vt 0.400000 0.000000
vt 0.377778 0.333333
vt 0.400000 0.333333
vt 0.422222 0.666667
vt 0.400000 1.000000
vt 0.422222 0.000000
vt 0.444444 0.666667
vt 0.422222 1.000000
vt 0.444444 0.000000
vt 0.422222 0.333333
vt 0.444444 0.333333
vt 0.466667 0.666667
vt 0.444444 1.000000
vt 0.466667 0.000000
vt 0.488889 0.666667
vt 0.466667 1.000000
vt 0.488889 0.000000
vt 0.466667 0.333333
vt 0.488889 0.333333
vt 0.488889 1.000000
vt 1.000000 0.666667
vn 0.0100 0.9999 -0.0008
vn -0.9968 0.0000 0.0802
vn 0.0100 -0.9999 -0.0008
vn 0.0098 0.9999 -0.0024
vn -0.9714 0.0000 0.2374
vn 0.0098 -0.9999 -0.0024
vn 0.0095 0.9999 -0.0040
vn -0.9225 0.0000 0.3861
vn 0.0095 -0.9999 -0.0040
vn 0.0089 0.9999 -0.0054
vn -0.8531 0.0000 0.5217
vn 0.0089 -0.9999 -0.0054
vn 0.0081 0.9999 -0.0068
vn -0.7674 0.0000 0.6412
vn 0.0081 -0.9999 -0.0068
vn 0.0072 0.9999 -0.0080
vn -0.6692 0.0000 0.7431
vn 0.0072 -0.9999 -0.0080
vn 0.0062 0.9999 -0.0091
vn -0.5620 0.0000 0.8272
vn 0.0062 -0.9999 -0.0091
vn 0.0050 0.9999 -0.0100
vn -0.4487 0.0000 0.8937
vn 0.0050 -0.9999 -0.0100
vn 0.0038 0.9999 -0.0107
vn -0.3315 0.0000 0.9435
vn 0.0038 -0.9999 -0.0107
vn 0.0024 0.9999 -0.0112
vn -0.2119 0.0000 0.9773
vn 0.0024 -0.9999 -0.0112
vn 0.0011 0.9999 -0.0115
vn -0.0910 0.0000 0.9958
vn 0.0011 -0.9999 -0.0115
vn -0.0004 0.9999 -0.0116
vn 0.0304 0.0000 0.9995
vn -0.0004 -0.9999 -0.0116
vn -0.0017 0.9999 -0.0114
vn 0.1516 0.0000 0.9884
vn -0.0017 -0.9999 -0.0114
vn -0.0031 0.9999 -0.0110
vn 0.2719 0.0000 0.9623
vn -0.0031 -0.9999 -0.0110
vn -0.0044 0.9999 -0.0104
vn 0.3904 0.0000 0.9206
vn -0.0044 -0.9999 -0.0104
vn -0.0056 0.9999 -0.0096
vn 0.5059 0.0000 0.8626
vn -0.0056 -0.9999 -0.0096
vn -0.0067 0.9999 -0.0086
vn 0.6165 0.0000 0.7874
vn -0.0067 -0.9999 -0.0086
vn -0.0077 0.9999 -0.0074
vn 0.7196 0.0000 0.6944
vn -0.0077 -0.9999 -0.0074
vn -0.0085 0.9999 -0.0061
vn 0.8121 0.0000 0.5836
vn -0.0085 -0.9999 -0.0061
vn -0.0092 0.9999 -0.0047
vn 0.8901 0.0000 0.4557
vn -0.0092 -0.9999 -0.0047
vn -0.0097 0.9999 -0.0032
vn 0.9497 0.0000 0.3132
vn -0.0097 -0.9999 -0.0032
vn -0.0100 0.9999 -0.0016
vn 0.9872 0.0000 0.1596
vn -0.0100 -0.9999 -0.0016
vn -0.0101 0.9999 0.0000
vn 1.0000 0.0000 0.0000
vn -0.0101 -0.9999 0.0000
vn -0.0100 0.9999 0.0016
vn 0.9872 0.0000 -0.1596
vn -0.0100 -0.9999 0.0016
vn -0.0097 0.9999 0.0032
vn 0.9497 0.0000 -0.3132
vn -0.0097 -0.9999 0.0032
vn -0.0092 0.9999 0.0047
vn 0.8901 0.0000 -0.4557
vn -0.0092 -0.9999 0.0047
vn -0.0085 0.9999 0.0061
vn 0.8121 0.0000 -0.5836
vn -0.0085 -0.9999 0.0061
vn -0.0077 0.9999 0.0074
vn 0.7196 0.0000 -0.6944
vn -0.0077 -0.9999 0.0074
vn -0.0067 0.9999 0.0086
vn 0.6165 0.0000 -0.7874
vn -0.0067 -0.9999 0.0086
vn -0.0056 0.9999 0.0096
vn 0.5059 0.0000 -0.8626
vn -0.0056 -0.9999 0.0096
vn -0.0044 0.9999 0.0104
vn 0.3905 0.0000 -0.9206
vn -0.0044 -0.9999 0.0104
vn -0.0031 0.9999 0.0110
vn 0.2719 0.0000 -0.9623
vn -0.0031 -0.9999 0.0110
vn -0.0017 0.9999 0.0114
vn 0.1516 0.0000 -0.9884
vn -0.0017 -0.9999 0.0114
vn -0.0004 0.9999 0.0116
vn 0.0304 0.0000 -0.9995
vn -0.0004 -0.9999 0.0116
vn 0.0011 0.9999 0.0115
vn -0.0910 0.0000 -0.9958
vn 0.0011 -0.9999 0.0115
vn 0.0024 0.9999 0.0112
vn -0.2119 0.0000 -0.9773
vn 0.0024 -0.9999 0.0112
vn 0.0038 0.9999 0.0107
vn -0.3315 0.0000 -0.9435
vn 0.0038 -0.9999 0.0107
vn 0.0050 0.9999 0.0100
vn -0.4487 0.0000 -0.8937
vn 0.0050 -0.9999 0.0100
vn 0.0062 0.9999 0.0091
vn -0.5620 0.0000 -0.8272
vn 0.0062 -0.9999 0.0091
vn 0.0072 0.9999 0.0080
vn -0.6692 0.0000 -0.7431
vn 0.0072 -0.9999 0.0080
vn 0.0081 0.9999 0.0068
vn -0.7674 0.0000 -0.6412
vn 0.0081 -0.9999 0.0068
vn 0.0089 0.9999 0.0054
vn -0.8531 0.0000 -0.5217
vn 0.0089 -0.9999 0.0054
vn 0.0095 0.9999 0.0040
vn -0.9225 0.0000 -0.3861
vn 0.0095 -0.9999 0.0040
vn 0.0098 0.9999 0.0024
vn -0.9714 0.0000 -0.2374
vn 0.0098 -0.9999 0.0024
vn 0.0100 0.9999 0.0008
vn -0.9968 0.0000 -0.0802
vn 0.0100 -0.9999 0.0008
vn 0.3905 0.0000 0.9206
usemtl Ring
s off
f 4/1/1 2/2/1 1/3/1
f 5/4/2 3/5/2 2/6/2
f 6/7/3 1/3/3 3/5/3
f 4/1/4 8/8/4 5/9/4
f 8/10/5 6/7/5 5/4/5
f 9/11/6 4/1/6 6/7/6
f 7/12/7 11/13/7 8/8/7
f 11/14/8 9/11/8 8/10/8
f 12/15/9 7/12/9 9/11/9
f 10/16/10 14/17/10 11/13/10
f 14/18/11 12/15/11 11/14/11
f 15/19/12 10/16/12 12/15/12
f 16/20/13 14/17/13 13/21/13
f 17/22/14 15/19/14 14/18/14
f 18/23/15 13/21/15 15/19/15
f 19/24/16 17/25/16 16/20/16
f 20/26/17 18/23/17 17/22/17
f 21/27/18 16/20/18 18/23/18
f 22/28/19 20/29/19 19/24/19
f 23/30/20 21/27/20 20/26/20
f 21/27/21 22/28/21 19/24/21
f 25/31/22 23/32/22 22/28/22
f 26/33/23 24/34/23 23/30/23
f 24/34/24 25/31/24 22/28/24
f 28/35/25 26/36/25 25/31/25
f 29/37/26 27/38/26 26/33/26
f 30/39/27 25/31/27 27/38/27
f 31/40/28 29/41/28 28/35/28
f 32/42/29 30/39/29 29/37/29
f 33/43/30 28/35/30 30/39/30
f 31/40/31 35/44/31 32/45/31
f 35/46/32 33/43/32 32/42/32
f 33/43/33 34/47/33 31/40/33
f 37/48/34 35/44/34 34/47/34
f 38/49/35 36/50/35 35/46/35
f 39/51/36 34/47/36 36/50/36
f 37/48/37 41/52/37 38/53/37
f 41/54/38 39/51/38 38/49/38
f 42/55/39 37/48/39 39/51/39
f 43/56/40 41/52/40 40/57/40
f 44/58/41 42/55/41 41/54/41
f 45/59/42 40/57/42 42/55/42
f 46/60/43 44/61/43 43/56/43
f 47/62/44 45/59/44 44/58/44
f 45/59/45 46/60/45 43/56/45
f 49/63/46 47/64/46 46/60/46
f 50/65/47 48/66/47 47/62/47
f 48/66/48 49/63/48 46/60/48
f 49/63/49 53/67/49 50/68/49
f 53/69/50 51/70/50 50/65/50
f 54/71/51 49/63/51 51/70/51
f 52/72/52 56/73/52 53/67/52
f 56/74/53 54/71/53 53/69/53
f 57/75/54 52/72/54 54/71/54
f 58/76/55 56/73/55 55/77/55
f 59/78/56 57/75/56 56/74/56
f 60/79/57 55/77/57 57/75/57
f 61/80/58 59/81/58 58/76/58
f 62/82/59 60/79/59 59/78/59
f 63/83/60 58/76/60 60/79/60
f 61/80/61 65/84/61 62/85/61
f 65/86/62 63/83/62 62/82/62
f 66/87/63 61/80/63 63/83/63
f 64/88/64 68/89/64 65/84/64
f 68/90/65 66/87/65 65/86/65
f 69/91/66 64/88/66 66/87/66
f 70/92/67 68/93/67 67/94/67
f 71/95/68 69/96/68 68/97/68
f 72/98/69 67/94/69 69/96/69
f 73/99/70 71/100/70 70/92/70
f 74/101/71 72/98/71 71/95/71
f 72/98/72 73/99/72 70/92/72
f 76/102/73 74/103/73 73/99/73
f 77/104/74 75/105/74 74/101/74
f 78/106/75 73/99/75 75/105/75
f 79/107/76 77/108/76 76/102/76
f 80/109/77 78/106/77 77/104/77
f 81/110/78 76/102/78 78/106/78
f 82/111/79 80/112/79 79/107/79
f 83/113/80 81/110/80 80/109/80
f 84/114/81 79/107/81 81/110/81
f 82/111/82 86/115/82 83/116/82
f 86/117/83 84/114/83 83/113/83
f 84/114/84 85/118/84 82/111/84
f 88/119/85 86/115/85 85/118/85
f 89/120/86 87/121/86 86/117/86
f 87/121/87 88/119/87 85/118/87
f 91/122/88 89/123/88 88/119/88
f 92/124/89 90/125/89 89/120/89
f 93/126/90 88/119/90 90/125/90
f 94/127/91 92/128/91 91/122/91
f 95/129/92 93/126/92 92/124/92
f 96/130/93 91/122/93 93/126/93
f 97/131/94 95/132/94 94/127/94
f 98/133/95 96/130/95 95/129/95
f 99/134/96 94/127/96 96/130/96
f 100/135/97 98/136/97 97/131/97
f 101/137/98 99/134/98 98/133/98
f 102/138/99 97/131/99 99/134/99
f 100/135/100 104/139/100 101/140/100
f 104/141/101 102/138/101 101/137/101
f 105/142/102 100/135/102 102/138/102
f 103/143/103 107/144/103 104/139/103
f 107/145/104 105/142/104 104/141/104
f 105/142/105 106/146/105 103/143/105
f 109/147/106 107/144/106 106/146/106
f 110/148/107 108/149/107 107/145/107
f 111/150/108 106/146/108 108/149/108
f 112/151/109 110/152/109 109/147/109
f 113/153/110 111/150/110 110/148/110
f 114/154/111 109/147/111 111/150/111
f 115/155/112 113/156/112 112/151/112
f 116/157/113 114/154/113 113/153/113
f 114/154/114 115/155/114 112/151/114
f 118/158/115 116/159/115 115/155/115
f 119/160/116 117/161/116 116/157/116
f 117/161/117 118/158/117 115/155/117
f 121/162/118 119/163/118 118/158/118
f 122/164/119 120/165/119 119/160/119
f 123/166/120 118/158/120 120/165/120
f 124/167/121 122/168/121 121/162/121
f 125/169/122 123/166/122 122/164/122
f 123/166/123 124/167/123 121/162/123
f 127/170/124 125/171/124 124/167/124
f 128/172/125 126/173/125 125/169/125
f 129/174/126 124/167/126 126/173/126
f 130/175/127 128/176/127 127/170/127
f 131/177/128 129/174/128 128/172/128
f 129/174/129 130/175/129 127/170/129
f 133/178/130 131/179/130 130/175/130
f 134/180/131 132/181/131 131/177/131
f 135/182/132 130/175/132 132/181/132
f 133/178/133 2/2/133 134/183/133
f 2/6/134 135/182/134 134/180/134
f 3/5/135 133/178/135 135/182/135
f 4/1/1 5/9/1 2/2/1
f 5/4/2 6/7/2 3/5/2
f 6/7/3 4/1/3 1/3/3
f 4/1/4 7/12/4 8/8/4
f 8/10/5 9/11/5 6/7/5
f 9/11/6 7/12/6 4/1/6
f 7/12/7 10/16/7 11/13/7
f 11/14/8 12/15/8 9/11/8
f 12/15/9 10/16/9 7/12/9
f 10/16/10 13/21/10 14/17/10
f 14/18/11 15/19/11 12/15/11
f 15/19/12 13/21/12 10/16/12
f 16/20/13 17/25/13 14/17/13
f 17/22/14 18/23/14 15/19/14
f 18/23/15 16/20/15 13/21/15
f 19/24/16 20/29/16 17/25/16
f 20/26/17 21/27/17 18/23/17
f 21/27/18 19/24/18 16/20/18
f 22/28/19 23/32/19 20/29/19
f 23/30/20 24/34/20 21/27/20
f 21/27/21 24/34/21 22/28/21
f 25/31/22 26/36/22 23/32/22
f 26/33/23 27/38/23 24/34/23
f 24/34/24 27/38/24 25/31/24
f 28/35/25 29/41/25 26/36/25
f 29/37/26 30/39/26 27/38/26
f 30/39/27 28/35/27 25/31/27
f 31/40/28 32/45/28 29/41/28
f 32/42/29 33/43/29 30/39/29
f 33/43/30 31/40/30 28/35/30
f 31/40/31 34/47/31 35/44/31
f 35/46/32 36/50/32 33/43/32
f 33/43/33 36/50/33 34/47/33
f 37/48/34 38/53/34 35/44/34
f 38/49/35 39/51/35 36/50/35
f 39/51/36 37/48/36 34/47/36
f 37/48/37 40/57/37 41/52/37
f 41/54/38 42/55/38 39/51/38
f 42/55/39 40/57/39 37/48/39
f 43/56/40 44/61/40 41/52/40
f 44/58/41 45/59/41 42/55/41
f 45/59/42 43/56/42 40/57/42
f 46/60/43 47/64/43 44/61/43
f 47/62/136 48/66/136 45/59/136
f 45/59/45 48/66/45 46/60/45
f 49/63/46 50/68/46 47/64/46
f 50/65/47 51/70/47 48/66/47
f 48/66/48 51/70/48 49/63/48
f 49/63/49 52/72/49 53/67/49
f 53/69/50 54/71/50 51/70/50
f 54/71/51 52/72/51 49/63/51
f 52/72/52 55/77/52 56/73/52
f 56/74/53 57/75/53 54/71/53
f 57/75/54 55/77/54 52/72/54
f 58/76/55 59/81/55 56/73/55
f 59/78/56 60/79/56 57/75/56
f 60/79/57 58/76/57 55/77/57
f 61/80/58 62/85/58 59/81/58
f 62/82/59 63/83/59 60/79/59
f 63/83/60 61/80/60 58/76/60
f 61/80/61 64/88/61 65/84/61
f 65/86/62 66/87/62 63/83/62
f 66/87/63 64/88/63 61/80/63
f 64/88/64 67/184/64 68/89/64
f 68/90/65 69/91/65 66/87/65
f 69/91/66 67/184/66 64/88/66
f 70/92/67 71/100/67 68/93/67
f 71/95/68 72/98/68 69/96/68
f 72/98/69 70/92/69 67/94/69
f 73/99/70 74/103/70 71/100/70
f 74/101/71 75/105/71 72/98/71
f 72/98/72 75/105/72 73/99/72
f 76/102/73 77/108/73 74/103/73
f 77/104/74 78/106/74 75/105/74
f 78/106/75 76/102/75 73/99/75
f 79/107/76 80/112/76 77/108/76
f 80/109/77 81/110/77 78/106/77
f 81/110/78 79/107/78 76/102/78
f 82/111/79 83/116/79 80/112/79
f 83/113/80 84/114/80 81/110/80
f 84/114/81 82/111/81 79/107/81
f 82/111/82 85/118/82 86/115/82
f 86/117/83 87/121/83 84/114/83
f 84/114/84 87/121/84 85/118/84
f 88/119/85 89/123/85 86/115/85
f 89/120/86 90/125/86 87/121/86
f 87/121/87 90/125/87 88/119/87
f 91/122/88 92/128/88 89/123/88
f 92/124/89 93/126/89 90/125/89
f 93/126/90 91/122/90 88/119/90
f 94/127/91 95/132/91 92/128/91
f 95/129/92 96/130/92 93/126/92
f 96/130/93 94/127/93 91/122/93
f 97/131/94 98/136/94 95/132/94
f 98/133/95 99/134/95 96/130/95
f 99/134/96 97/131/96 94/127/96
f 100/135/97 101/140/97 98/136/97
f 101/137/98 102/138/98 99/134/98
f 102/138/99 100/135/99 97/131/99
f 100/135/100 103/143/100 104/139/100
f 104/141/101 105/142/101 102/138/101
f 105/142/102 103/143/102 100/135/102
f 103/143/103 106/146/103 107/144/103
f 107/145/104 108/149/104 105/142/104
f 105/142/105 108/149/105 106/146/105
f 109/147/106 110/152/106 107/144/106
f 110/148/107 111/150/107 108/149/107
f 111/150/108 109/147/108 106/146/108
f 112/151/109 113/156/109 110/152/109
f 113/153/110 114/154/110 111/150/110
f 114/154/111 112/151/111 109/147/111
f 115/155/112 116/159/112 113/156/112
f 116/157/113 117/161/113 114/154/113
f 114/154/114 117/161/114 115/155/114
f 118/158/115 119/163/115 116/159/115
f 119/160/116 120/165/116 117/161/116
f 117/161/117 120/165/117 118/158/117
f 121/162/118 122/168/118 119/163/118
f 122/164/119 123/166/119 120/165/119
f 123/166/120 121/162/120 118/158/120
f 124/167/121 125/171/121 122/168/121
f 125/169/122 126/173/122 123/166/122
f 123/166/123 126/173/123 124/167/123
f 127/170/124 128/176/124 125/171/124
f 128/172/125 129/174/125 126/173/125
f 129/174/126 127/170/126 124/167/126
f 130/175/127 131/179/127 128/176/127
f 131/177/128 132/181/128 129/174/128
f 129/174/129 132/181/129 130/175/129
f 133/178/130 134/183/130 131/179/130
f 134/180/131 135/182/131 132/181/131
f 135/182/132 133/178/132 130/175/132
f 133/178/133 1/3/133 2/2/133
f 2/6/134 3/5/134 135/182/134
f 3/5/135 1/3/135 133/178/135
